<?xml version="1.0" standalone="no"?>
<!DOCTYPE svg PUBLIC "-//W3C//DTD SVG 20010904//EN"
 "http://www.w3.org/TR/2001/REC-SVG-20010904/DTD/svg10.dtd">
<svg version="1.0" xmlns="http://www.w3.org/2000/svg"
 width="1280.000000pt" height="1060.000000pt" viewBox="0 0 1280.000000 1060.000000"
 preserveAspectRatio="xMidYMid meet">
<metadata>
Created by potrace 1.15, written by Peter Selinger 2001-2017
</metadata>
<g transform="translate(0.000000,1060.000000) scale(0.100000,-0.100000)"
fill="#000000" stroke="none">
<path d="M4846 10540 c-159 -248 -266 -720 -253 -1120 8 -247 36 -397 112
-595 54 -139 172 -331 247 -402 l24 -22 69 60 c268 231 565 353 850 348 l100
-2 22 109 c88 433 15 785 -228 1089 -72 90 -85 101 -139 115 -144 38 -380 145
-503 228 -72 48 -183 151 -233 215 l-29 37 -39 -60z"/>
<path d="M5406 10564 c24 -36 114 -108 188 -149 34 -19 124 -59 200 -90 77
-31 157 -69 179 -85 94 -69 166 -188 217 -361 55 -186 98 -255 175 -284 73
-28 145 -2 180 65 17 33 20 128 6 178 -11 38 -2 41 45 11 54 -33 82 -103 99
-254 12 -109 20 -140 47 -194 28 -54 41 -69 80 -89 60 -31 96 -24 149 29 62
62 84 149 83 324 -1 122 -4 152 -28 230 -15 50 -44 121 -64 160 -82 154 -312
335 -507 398 -89 30 -156 37 -405 47 -274 11 -421 28 -558 65 -51 14 -95 25
-98 25 -2 0 3 -12 12 -26z"/>
<path d="M5850 8508 c-90 -12 -255 -69 -359 -123 -108 -56 -194 -121 -293
-222 l-78 -78 42 -240 c22 -132 43 -242 46 -245 2 -3 36 29 75 72 142 152 387
313 606 399 l96 38 3 205 2 206 -37 -1 c-21 -1 -67 -6 -103 -11z"/>
<path d="M8750 8474 c-630 -66 -1267 -258 -1905 -572 -212 -104 -545 -290
-552 -308 -2 -6 37 -369 86 -805 50 -437 111 -972 136 -1189 24 -217 85 -753
135 -1190 49 -437 101 -887 115 -1000 l25 -205 1083 -1083 c595 -596 1099
-1097 1119 -1113 l37 -30 101 118 c230 267 360 524 360 707 0 70 -25 170 -57
228 -39 72 -148 170 -235 212 -113 54 -178 66 -374 66 -262 0 -384 39 -494
156 -75 81 -101 146 -107 274 -11 221 99 465 301 666 108 108 207 176 376 260
449 222 817 251 1182 94 124 -53 225 -116 360 -223 261 -208 476 -315 748
-373 104 -22 382 -26 475 -6 159 34 313 100 448 189 94 63 263 227 343 333
160 212 267 520 321 925 21 162 24 608 5 765 -92 749 -362 1373 -814 1881
-458 513 -1169 938 -1883 1124 -160 42 -251 60 -425 87 -179 27 -704 34 -910
12z m-632 -716 c61 -15 132 -85 155 -153 27 -77 22 -164 -13 -252 -51 -128
-38 -159 86 -202 103 -35 139 -64 177 -140 28 -58 32 -75 32 -151 0 -68 -4
-93 -22 -126 -55 -103 -175 -162 -402 -198 -112 -18 -154 -35 -171 -67 -7 -11
-16 -66 -21 -122 -15 -160 -45 -221 -134 -270 -123 -69 -282 -80 -385 -27
-124 64 -187 223 -141 357 12 34 21 69 21 77 0 27 -50 75 -128 122 -101 62
-140 100 -153 147 -20 76 14 156 112 264 51 56 51 89 -2 206 -64 144 -63 227
4 304 74 84 161 93 305 32 70 -30 116 -43 163 -47 97 -7 128 7 206 95 76 84
136 130 197 149 52 16 58 16 114 2z m1751 2 c19 -5 65 -40 110 -83 93 -89 143
-111 230 -105 49 3 73 12 143 55 45 28 105 58 131 67 142 48 242 -18 254 -168
5 -51 0 -76 -26 -151 -35 -99 -39 -146 -15 -166 10 -8 62 -15 154 -19 129 -6
142 -8 203 -38 79 -39 158 -108 195 -171 24 -41 27 -56 27 -136 0 -81 -3 -96
-30 -145 -88 -162 -291 -279 -486 -280 -150 0 -231 -56 -288 -197 -50 -124
-70 -158 -124 -213 -59 -58 -147 -105 -227 -120 -172 -33 -363 70 -460 250
-34 63 -35 69 -35 170 1 122 15 162 89 253 26 32 49 70 52 85 11 61 -60 126
-212 194 -139 61 -198 132 -198 238 -1 101 66 182 178 214 101 30 126 88 86
206 -18 52 -19 66 -8 107 15 62 79 127 145 147 59 18 69 19 112 6z m1506
-1934 c60 -30 98 -67 162 -161 73 -106 99 -117 298 -126 185 -9 249 -26 310
-86 90 -87 117 -246 63 -365 -62 -133 -148 -187 -318 -197 -120 -7 -147 -19
-175 -77 -24 -51 -23 -118 5 -192 54 -146 -14 -346 -145 -427 -46 -28 -54 -30
-154 -30 -92 0 -112 3 -156 25 -67 33 -131 99 -163 168 -22 48 -27 76 -32 177
-4 82 -11 129 -22 150 -26 49 -97 112 -167 149 -115 61 -170 141 -171 247 0
122 80 209 211 230 122 19 132 36 139 239 5 130 10 161 27 195 26 50 71 93
109 105 44 14 122 3 179 -24z m-2513 -730 c102 -20 175 -49 260 -105 177 -116
268 -271 255 -437 -6 -83 -32 -149 -82 -209 -56 -70 -117 -101 -267 -140 -508
-131 -776 -327 -1022 -744 -67 -115 -97 -141 -162 -141 -87 0 -203 89 -258
199 -71 139 -81 372 -26 588 57 221 204 478 383 670 228 243 614 377 919 319z"/>
<path d="M2806 7889 c-309 -28 -649 -153 -879 -324 -446 -331 -725 -875 -753
-1470 -6 -125 9 -372 24 -387 4 -3 32 -2 62 3 176 30 481 27 710 -6 187 -27
492 -100 745 -179 43 -14 80 -24 81 -23 1 1 16 47 34 102 40 123 143 370 214
519 60 123 136 244 204 324 l44 52 -40 98 c-133 322 -211 700 -250 1202 l-7
95 -45 1 c-25 1 -89 -2 -144 -7z"/>
<path d="M5920 7796 c-213 -75 -411 -229 -531 -410 -102 -154 -98 -122 -55
-534 35 -340 121 -1132 269 -2509 18 -167 30 -303 27 -303 -4 0 -40 35 -81 77
-41 43 -407 417 -813 830 -597 608 -742 751 -753 742 -20 -17 -115 -173 -161
-266 -63 -125 -117 -260 -177 -446 l-56 -171 1101 -1101 1101 -1101 54 -505
c131 -1221 156 -1442 171 -1521 53 -287 166 -484 309 -537 123 -46 273 -20
352 61 84 87 112 181 120 398 5 143 1 194 -52 658 -31 277 -55 511 -53 521 2
13 217 -194 743 -716 407 -404 769 -759 805 -788 258 -211 469 -228 644 -53
90 91 111 140 111 258 -1 90 -3 99 -41 180 -22 47 -70 123 -105 170 -35 46
-307 332 -604 635 -1023 1043 -1710 1747 -1717 1759 -3 6 -32 234 -62 506 -31
272 -70 612 -86 755 -16 143 -75 661 -130 1150 -55 490 -114 1007 -130 1150
-16 143 -50 445 -75 670 -25 226 -49 422 -53 437 l-7 27 -65 -23z"/>
<path d="M759 6576 c-494 -444 -778 -970 -756 -1401 10 -197 68 -345 177 -456
75 -75 143 -111 215 -113 141 -3 167 65 130 343 -12 86 -13 128 -5 169 5 31
12 58 15 60 11 12 68 -56 95 -113 45 -95 60 -169 70 -344 6 -93 17 -189 26
-220 50 -172 172 -289 314 -299 45 -3 61 0 90 20 76 52 101 156 71 288 -19 79
-90 225 -167 343 -37 56 -82 131 -100 167 -67 133 -125 380 -144 615 -26 324
2 731 66 954 14 46 23 85 21 87 -2 2 -55 -43 -118 -100z"/>
<path d="M4942 6546 c-116 -126 -307 -410 -465 -693 -63 -114 -77 -145 -68
-160 5 -10 184 -191 397 -403 375 -374 386 -384 381 -345 -3 22 -47 393 -97
825 -50 432 -94 793 -98 803 -7 17 -13 13 -50 -27z"/>
<path d="M3435 6138 c-90 -96 -170 -202 -208 -271 -59 -107 -109 -288 -126
-462 l-10 -100 147 -147 c81 -82 150 -148 153 -148 4 0 30 71 59 158 100 302
183 492 287 651 l55 84 -149 149 -150 149 -58 -63z"/>
<path d="M3861 4033 c-68 -466 -78 -841 -32 -1195 78 -595 305 -1079 672
-1434 254 -245 560 -471 847 -627 124 -68 343 -170 349 -163 2 2 -16 199 -42
438 -25 238 -68 640 -95 893 -27 253 -52 485 -56 516 l-7 57 -271 268 c-149
148 -390 386 -536 529 -146 143 -387 380 -535 527 -149 148 -273 268 -277 268
-3 0 -11 -35 -17 -77z m1100 -1518 c50 -26 107 -93 129 -151 26 -70 26 -69
-10 -182 -34 -103 -32 -121 10 -167 39 -42 50 -68 50 -115 0 -50 -19 -89 -60
-124 -40 -33 -114 -35 -179 -6 -58 27 -63 26 -133 -17 -49 -30 -69 -37 -109
-36 -97 1 -188 87 -189 176 0 21 14 69 30 107 17 38 30 79 30 93 0 39 -34 73
-87 86 -76 18 -98 30 -116 60 -38 65 -10 153 62 195 33 19 34 19 107 -2 40
-12 82 -22 91 -22 42 0 92 23 143 65 30 25 69 50 85 55 38 12 107 5 146 -15z"/>
<path d="M7090 616 l0 -296 84 0 c136 0 286 36 375 91 l34 21 -149 149 c-82
83 -193 191 -246 241 l-98 90 0 -296z"/>
</g>
</svg>
